<svg xmlns="http://www.w3.org/2000/svg" viewBox="0 0 385 238" class="frame"><g id="DiscoverFrame"><path d="M368.1,3A17.77,17.77,0,0,0,384,18.9V221.1A17.77,17.77,0,0,0,368.1,237H18.9A17.77,17.77,0,0,0,3,221.1V18.9A17.77,17.77,0,0,0,18.9,3H368.1M370,1H17A15.8,15.8,0,0,1,1,17V223a15.8,15.8,0,0,1,16,16H370a15.8,15.8,0,0,1,16-16V17A15.8,15.8,0,0,1,370,1Z" class="outer" style="fill: rgb(100, 90, 86);"></path> <path d="M360.62,13A27.3,27.3,0,0,0,374,26.38V213.62A27.3,27.3,0,0,0,360.62,227H26.38A27.3,27.3,0,0,0,13,213.62V26.38A27.3,27.3,0,0,0,26.38,13H360.62m2.7-4H23.68A23.26,23.26,0,0,1,9,23.68V216.32A23.26,23.26,0,0,1,23.68,231H363.32A23.26,23.26,0,0,1,378,216.32V23.68A23.26,23.26,0,0,1,363.32,9Z" class="inner" style="fill: rgb(115, 100, 75);"></path></g></svg>
